<svg width="90" height="51" viewBox="0 0 90 51" fill="none" xmlns="http://www.w3.org/2000/svg">
<path d="M67.1009 15.4101L74.6001 2.35752C74.8077 1.99714 74.8644 1.56859 74.7578 1.16614C74.6512 0.763686 74.39 0.420301 74.0316 0.211535C73.8542 0.108165 73.6582 0.0409568 73.455 0.0137427C73.2517 -0.0134713 73.0451 -0.000161112 72.8469 0.0529245C72.4467 0.160136 72.1053 0.422833 71.8977 0.783218L64.3097 13.9833C58.2536 11.2453 51.6891 9.8296 45.0492 9.8296C38.4093 9.8296 31.8448 11.2453 25.7887 13.9833L18.2027 0.783218C17.9951 0.422833 17.6536 0.160136 17.2534 0.0529245C16.8532 -0.0542867 16.4271 0.0027688 16.0687 0.211535C15.7104 0.420301 15.4492 0.763686 15.3425 1.16614C15.2359 1.56859 15.2927 1.99714 15.5003 2.35752L22.9994 15.4101C10.0665 22.4489 1.28365 35.5442 0 51H90C88.7164 35.5442 79.9123 22.4489 67.0874 15.4082L67.1009 15.4101ZM24.3179 38.1007C23.5784 38.1007 22.8554 37.8802 22.2406 37.4671C21.6257 37.0539 21.1465 36.4667 20.8635 35.7796C20.5805 35.0925 20.5064 34.3365 20.6507 33.6071C20.795 32.8777 21.1511 32.2077 21.674 31.6819C22.1969 31.156 22.8631 30.7979 23.5884 30.6528C24.3137 30.5077 25.0655 30.5822 25.7487 30.8668C26.4319 31.1514 27.0158 31.6333 27.4267 32.2517C27.8375 32.87 28.0568 33.597 28.0568 34.3407C28.0568 35.3379 27.6629 36.2943 26.9617 36.9994C26.2605 37.7046 25.3095 38.1007 24.3179 38.1007ZM65.7535 38.1007C65.014 38.1007 64.2912 37.8802 63.6763 37.4671C63.0614 37.0539 62.5822 36.4667 62.2992 35.7796C62.0162 35.0925 61.9421 34.3365 62.0864 33.6071C62.2307 32.8777 62.5868 32.2077 63.1097 31.6819C63.6326 31.156 64.2988 30.7979 65.0241 30.6528C65.7494 30.5077 66.5012 30.5822 67.1844 30.8668C67.8676 31.1514 68.4516 31.6333 68.8624 32.2517C69.2732 32.87 69.4925 33.597 69.4925 34.3407C69.492 35.3377 69.0979 36.2938 68.3968 36.9989C67.6958 37.7039 66.745 38.1002 65.7535 38.1007Z" fill="#046180"/>
</svg>
