<svg width="60" height="44" viewBox="0 0 60 44" fill="none" xmlns="http://www.w3.org/2000/svg">
<path d="M0 17.6001H26.4V44.0001H0V17.6001Z" fill="#046180"/>
<path d="M32.6855 0H59.0855V26.4H32.6855V0Z" fill="#046180"/>
<mask id="path-3-inside-1_701_1258" fill="white">
<path d="M16.3418 8.7998H42.7418V35.1998H16.3418V8.7998Z"/>
</mask>
<path d="M16.3418 8.7998V5.7998H13.3418V8.7998H16.3418ZM42.7418 8.7998H45.7418V5.7998H42.7418V8.7998ZM42.7418 35.1998V38.1998H45.7418V35.1998H42.7418ZM16.3418 35.1998H13.3418V38.1998H16.3418V35.1998ZM16.3418 11.7998H42.7418V5.7998H16.3418V11.7998ZM39.7418 8.7998V35.1998H45.7418V8.7998H39.7418ZM42.7418 32.1998H16.3418V38.1998H42.7418V32.1998ZM19.3418 35.1998V8.7998H13.3418V35.1998H19.3418Z" fill="#FED700" mask="url(#path-3-inside-1_701_1258)"/>
</svg>
