<svg width="81" height="81" viewBox="0 0 81 81" fill="none" xmlns="http://www.w3.org/2000/svg">
<mask id="mask0_701_1271" style="mask-type:alpha" maskUnits="userSpaceOnUse" x="0" y="0" width="81" height="81">
<rect x="1" y="1" width="79" height="79" fill="#D9D9D9" stroke="black" stroke-width="2"/>
</mask>
<g mask="url(#mask0_701_1271)">
<rect x="21.5098" y="22.3403" width="38.4379" height="38.4379" stroke="black" stroke-linecap="round" stroke-dasharray="5 5"/>
<path fill-rule="evenodd" clip-rule="evenodd" d="M24.5212 25.4681C25.8682 24.5006 26.7455 22.9205 26.7455 21.1355C26.7455 18.1914 24.3588 15.8047 21.4146 15.8047C18.4705 15.8047 16.0838 18.1914 16.0838 21.1355C16.0838 22.9208 16.9614 24.5011 18.3087 25.4686C16.7474 25.9625 15.3115 26.8264 14.1321 28.0057C12.2005 29.9374 11.1152 32.5574 11.1152 35.2892L21.4156 35.2892H31.716C31.716 32.5574 30.6308 29.9374 28.6991 28.0057C27.5194 26.826 26.083 25.962 24.5212 25.4681Z" fill="#046180"/>
<path d="M69.5441 63.9405C69.5441 61.2087 68.4589 58.5887 66.5272 56.657C64.5955 54.7254 61.9756 53.6401 59.2437 53.6401C56.5119 53.6401 53.892 54.7254 51.9603 56.657C50.0286 58.5887 48.9434 61.2087 48.9434 63.9405L59.2437 63.9405H69.5441Z" fill="#FED700"/>
<circle cx="59.2469" cy="49.7869" r="5.33084" fill="#FED700"/>
</g>
</svg>
