<svg width="57" height="70" viewBox="0 0 57 70" fill="none" xmlns="http://www.w3.org/2000/svg">
<path d="M31.4558 6.09082C36.0486 0.0296837 42.4347 0 42.4347 0C42.4347 0 43.3837 5.69889 38.8205 11.188C33.9489 17.0492 28.411 16.0911 28.411 16.0911C28.411 16.0911 27.3651 11.4809 31.4558 6.09082ZM28.9943 20.0817C31.3668 20.0817 35.7441 16.8294 41.4501 16.8294C51.2763 16.8294 55.1415 23.8308 55.1415 23.8308C55.1415 23.8308 47.5811 27.7007 47.5811 37.0933C47.5811 47.6874 57 51.3455 57 51.3455C57 51.3455 50.4162 69.8971 41.5232 69.8971C37.4385 69.8971 34.2633 67.1417 29.9591 67.1417C25.5739 67.1417 21.2223 70 18.3871 70C10.2671 70 0 52.4025 0 38.2552C0 24.3356 8.68346 17.0353 16.8291 17.0353C22.1238 17.0353 26.2323 20.0916 28.9844 20.0916L28.9943 20.0817Z" fill="#046180"/>
</svg>
