<svg width="79" height="52" viewBox="0 0 79 52" fill="none" xmlns="http://www.w3.org/2000/svg">
<path d="M23.9668 35.1552H27.3868V8.29126L23.9668 9.37552V35.1552Z" fill="white"/>
<path d="M43.1766 22.3598C44.0369 21.8482 45.0185 21.5762 46.0195 21.5722C46.6911 21.5772 47.3589 21.6733 48.0046 21.8581C48.544 22.0146 49.0835 22.1872 49.5797 22.3976L50.9121 19.7759C50.2417 19.4366 49.5312 19.1828 48.7975 19.0207C47.9023 18.8152 46.9865 18.7138 46.068 18.7186C44.5396 18.6903 43.0283 19.0444 41.6716 19.7489C41.3086 19.9445 40.9638 20.1719 40.6412 20.4286C39.8119 21.1145 39.1388 21.9698 38.667 22.937C37.7819 24.6592 37.4646 26.6174 37.7607 28.531C37.9642 29.8288 38.4685 31.061 39.2333 32.129C39.8322 32.9415 40.588 33.6257 41.4558 34.1411C42.7666 34.8895 44.2636 35.2488 45.7713 35.1768C46.6902 35.1913 47.6079 35.1008 48.5063 34.9071C49.2336 34.7352 49.9328 34.461 50.5831 34.0926V31.0987C49.9062 31.4587 49.1939 31.7479 48.4577 31.9618C47.6153 32.1987 46.7434 32.3131 45.8684 32.3016C44.9023 32.3086 43.9546 32.037 43.1388 31.5195C42.1523 30.8808 41.4064 29.9318 41.0189 28.8223C40.6498 27.6536 40.6598 26.3982 41.0473 25.2355C41.4349 24.0728 42.1802 23.0625 43.1766 22.349" fill="white"/>
<path d="M69.7212 16.2693H65.7941L59.8603 22.7156C59.5205 23.0986 59.1321 23.5787 58.7005 24.1343C58.269 24.69 57.9885 25.0514 57.7458 25.3804L57.6594 25.4883H57.5408C57.5785 24.9489 57.6109 24.3177 57.654 23.6435C57.6972 22.9692 57.708 22.3812 57.708 21.8579V8.50146L54.3257 9.58034V35.1604H57.708V28.5577L57.7458 28.5253L59.9628 26.5348L66.2365 35.1658H70.2607L62.2554 24.3771L69.7212 16.2693Z" fill="white"/>
<path d="M31.3354 35.1549H34.7393V19.5005L31.3354 20.5524V35.1549Z" fill="white"/>
<path d="M17.8655 8.4855C16.7185 8.45291 15.5789 8.67972 14.5318 9.14901C13.6157 9.59448 12.8765 10.3356 12.4334 11.2528C11.8951 12.4477 11.6438 13.7519 11.6997 15.0612V18.697L8.51709 19.7328V21.3834H11.6997V35.166H15.1198V21.3834H19.7373V18.7456H15.1198V15.0936C15.0473 14.0847 15.2945 13.0787 15.8264 12.2184C16.0858 11.8926 16.4211 11.6352 16.8028 11.4688C17.1846 11.3024 17.6013 11.2319 18.0166 11.2636C18.5263 11.2612 19.0346 11.3154 19.5323 11.4254C20.007 11.5333 20.4386 11.6466 20.827 11.7761L21.7117 9.14901C21.1577 8.95932 20.5919 8.80615 20.0178 8.69048C19.3074 8.54891 18.5845 8.48022 17.8601 8.4855" fill="white"/>
<path d="M0 51.7859H78.7577V0H0V51.7859ZM34.1194 45.0268H32.7114V48.7057H31.8753V45.0268H30.4674V44.2769H34.1194V45.0268ZM38.5751 45.0753H36.0829V46.1002H38.4888V46.877H36.0829V47.8804H38.5751V48.7057H35.2522V44.2769H38.5751V45.0753ZM42.0814 48.8082C41.7715 48.8324 41.4599 48.7902 41.1676 48.6844C40.8753 48.5786 40.6089 48.4116 40.3862 48.1946C40.1636 47.9776 39.9899 47.7155 39.8766 47.426C39.7634 47.1364 39.7132 46.8261 39.7295 46.5156C39.7148 46.2033 39.7656 45.8914 39.8787 45.6C39.9919 45.3086 40.1648 45.0441 40.3864 44.8235C40.6079 44.603 40.8732 44.4313 41.1652 44.3195C41.4571 44.2077 41.7692 44.1583 42.0814 44.1744C42.6892 44.1797 43.2705 44.4239 43.6998 44.8541L43.1603 45.3936C42.8694 45.1185 42.4817 44.9693 42.0814 44.9782C41.8774 44.968 41.6734 45.0009 41.4829 45.0747C41.2923 45.1485 41.1194 45.2616 40.9754 45.4066C40.8315 45.5516 40.7196 45.7253 40.6471 45.9164C40.5747 46.1074 40.5433 46.3116 40.5549 46.5156C40.5428 46.7183 40.5741 46.9212 40.6469 47.1107C40.7196 47.3002 40.8321 47.472 40.9766 47.6145C41.1212 47.7571 41.2946 47.867 41.4851 47.9371C41.6757 48.0071 41.879 48.0356 42.0814 48.0206C42.4981 48.019 42.8981 47.8567 43.1981 47.5675L43.7699 48.1447C43.5469 48.3623 43.2827 48.5331 42.9927 48.6471C42.7028 48.761 42.3929 48.8158 42.0814 48.8082ZM48.7327 48.7111H47.902V46.9148H45.7442V48.7111H44.9081V44.2769H45.7442V46.1488H47.902V44.2769H48.7327V48.7111ZM75.9527 40.8407H2.78891V2.79966H32.5604V11.0315C32.5317 11.0284 32.5027 11.0284 32.4741 11.0315C32.1502 11.1069 31.8467 11.2522 31.5849 11.4572C31.3231 11.6622 31.1092 11.9219 30.9583 12.2182C30.4188 13.1892 30.3649 15.0179 30.3649 15.5573V15.6167C30.3217 15.649 30.2948 15.676 30.2948 15.7084C30.2948 15.8756 30.9799 15.9943 31.8538 16.0482C31.8727 16.0836 31.8963 16.1163 31.9239 16.1453C32.2177 16.4356 32.614 16.5983 33.027 16.5983C33.44 16.5983 33.8363 16.4356 34.1302 16.1453C34.1612 16.1166 34.1885 16.084 34.2111 16.0482C35.085 15.9943 35.7701 15.8756 35.7701 15.7084C35.7701 15.676 35.7701 15.649 35.6999 15.6167C35.7054 15.5936 35.7054 15.5696 35.6999 15.5465C35.6999 15.0071 35.6999 13.1946 35.1119 12.2182C34.9595 11.923 34.7452 11.6641 34.4836 11.4593C34.222 11.2545 33.9193 11.1086 33.5961 11.0315H33.5098V2.79966H75.9581L75.9527 40.8407Z" fill="white"/>
</svg>
