<svg width="63" height="63" viewBox="0 0 63 63" fill="none" xmlns="http://www.w3.org/2000/svg">
<mask id="mask0_701_1196" style="mask-type:alpha" maskUnits="userSpaceOnUse" x="0" y="0" width="63" height="63">
<rect x="1.55255" y="1.2215" width="60.2922" height="60.2922" fill="#D9D9D9" stroke="black" stroke-width="1.62952"/>
</mask>
<g mask="url(#mask0_701_1196)">
<path d="M22.9385 8.50073L55.4378 8.50073V49.5696" stroke="#046180" stroke-width="2.44428" stroke-dasharray="3.26 3.26"/>
<path fill-rule="evenodd" clip-rule="evenodd" d="M19.1172 15.5817C19.1172 14.6817 19.8467 13.9521 20.7467 13.9521H43.9359C44.8359 13.9521 45.5654 14.6817 45.5654 15.5817V54.1545C45.5654 55.0545 44.8359 55.784 43.9359 55.784H20.7467C19.8467 55.784 19.1172 55.0545 19.1172 54.1545V15.5817ZM27.9347 51.3291C27.9347 51.0619 28.1513 50.8454 28.4185 50.8454H36.2645C36.5317 50.8454 36.7483 51.0619 36.7483 51.3291C36.7483 51.5963 36.5317 51.8129 36.2645 51.8129H28.4185C28.1513 51.8129 27.9347 51.5963 27.9347 51.3291ZM32.3857 16.0144C32.1185 16.0144 31.9019 16.231 31.9019 16.4982C31.9019 16.7653 32.1185 16.9819 32.3857 16.9819C32.6528 16.9819 32.8694 16.7653 32.8694 16.4982C32.8694 16.231 32.6528 16.0144 32.3857 16.0144Z" fill="#FED700"/>
</g>
</svg>
