<svg width="52" height="51" viewBox="0 0 52 51" fill="none" xmlns="http://www.w3.org/2000/svg">
<path d="M0 0H47.014V47.014H0V0Z" fill="#046180"/>
<path d="M23.6172 27.3462C24.6062 27.3462 25.5547 26.9534 26.254 26.254C26.9534 25.5547 27.3462 24.6062 27.3462 23.6172C27.3462 22.6282 26.9534 21.6797 26.254 20.9804C25.5547 20.2811 24.6062 19.8882 23.6172 19.8882C22.6282 19.8882 21.6797 20.2811 20.9804 20.9804C20.2811 21.6797 19.8882 22.6282 19.8882 23.6172C19.8882 24.6062 20.2811 25.5547 20.9804 26.254C21.6797 26.9534 22.6282 27.3462 23.6172 27.3462Z" stroke="#DDDDDD" stroke-width="1.5" stroke-miterlimit="10" stroke-linecap="round" stroke-linejoin="round"/>
<path d="M11.187 24.7112V22.5236C11.187 21.2308 12.2436 20.1618 13.5487 20.1618C15.7986 20.1618 16.7184 18.5708 15.5873 16.6193C14.9409 15.5006 15.3262 14.0462 16.4574 13.3999L18.6078 12.1693C19.5897 11.5851 20.8576 11.9331 21.4418 12.9151L21.5786 13.1513C22.6973 15.1028 24.5369 15.1028 25.6681 13.1513L25.8048 12.9151C26.389 11.9331 27.6569 11.5851 28.6389 12.1693L30.7893 13.3999C31.9204 14.0462 32.3057 15.5006 31.6594 16.6193C30.5282 18.5708 31.4481 20.1618 33.6979 20.1618C34.9906 20.1618 36.0596 21.2184 36.0596 22.5236V24.7112C36.0596 26.004 35.0031 27.073 33.6979 27.073C31.4481 27.073 30.5282 28.664 31.6594 30.6155C32.3057 31.7467 31.9204 33.1886 30.7893 33.8349L28.6389 35.0655C27.6569 35.6497 26.389 35.3017 25.8048 34.3197L25.6681 34.0835C24.5494 32.132 22.7097 32.132 21.5786 34.0835L21.4418 34.3197C20.8576 35.3017 19.5897 35.6497 18.6078 35.0655L16.4574 33.8349C15.9155 33.523 15.5196 33.0088 15.3565 32.4052C15.1934 31.8016 15.2764 31.158 15.5873 30.6155C16.7184 28.664 15.7986 27.073 13.5487 27.073C12.2436 27.073 11.187 26.004 11.187 24.7112Z" stroke="#DDDDDD" stroke-width="1.5" stroke-miterlimit="10" stroke-linecap="round" stroke-linejoin="round"/>
<path d="M52 26.1973L52 50.8592L27.338 50.8592L52 26.1973Z" fill="#FED700"/>
</svg>
